<svg id="Layer_1" data-name="Layer 1" xmlns="http://www.w3.org/2000/svg" viewBox="0 0 372.47 372.47"><path d="M298.37,80.42a21.84,21.84,0,1,0,21.84,21.83A21.83,21.83,0,0,0,298.37,80.42Z" transform="translate(-13.53 -13.91)"/><path d="M201.3,108.42A91.73,91.73,0,1,0,293,200.15,91.83,91.83,0,0,0,201.3,108.42Zm0,150.49a58.76,58.76,0,1,1,58.75-58.76A58.82,58.82,0,0,1,201.3,258.91Z" transform="translate(-13.53 -13.91)"/><path d="M274.12,386.38H125.41A112,112,0,0,1,13.53,274.51V125.79A112,112,0,0,1,125.41,13.91H274.12A112,112,0,0,1,386,125.79V274.51A112,112,0,0,1,274.12,386.38ZM125.41,49a76.92,76.92,0,0,0-76.84,76.83V274.51a76.92,76.92,0,0,0,76.84,76.83H274.12A76.92,76.92,0,0,0,351,274.51V125.79A76.92,76.92,0,0,0,274.12,49Z" transform="translate(-13.53 -13.91)"/></svg>