<svg id="Layer_1" data-name="Layer 1" xmlns="http://www.w3.org/2000/svg" viewBox="0 0 364.41 299.93"><path d="M380.51,85.48c-11.58,5.23-24.37,8.4-36.86,10.5,5.93-1,14.63-11.73,18.12-16.07A67.53,67.53,0,0,0,374,57.61c.32-.64.56-1.43-.08-1.91a2.08,2.08,0,0,0-1.95.16,188.13,188.13,0,0,1-43.7,16.72,2.9,2.9,0,0,1-3-.8,36.4,36.4,0,0,0-3.82-3.91,77.55,77.55,0,0,0-21.17-13,73.67,73.67,0,0,0-32.46-5.22A77.54,77.54,0,0,0,237,58.37a79.36,79.36,0,0,0-24.85,20.3,76.24,76.24,0,0,0-14.84,29.72c-2.55,10.45-2.35,20.8-.78,31.37.23,1.76.07,2-1.51,1.76C135,132.59,85.29,111.11,44.9,65.1c-1.75-2-2.7-2-4.14.15-17.67,26.49-9.1,69,13,89.95,2.94,2.79,6,5.58,9.22,8.12-1.18.24-15.87-1.35-29-8.12-1.75-1.11-2.63-.47-2.79,1.52a46.28,46.28,0,0,0,.48,8.6c3.39,26.85,22,51.68,47.45,61.37a45.45,45.45,0,0,0,9.63,2.95c-5.81,1.27-11.78,2.18-28.42.87-2.07-.39-2.86.64-2.07,2.63,12.5,34.08,39.49,44.22,59.7,50,2.71.48,5.41.48,8.13,1.11-.17.25-.33.25-.48.48-6.7,10.22-29.95,17.83-40.78,21.61-19.68,6.88-41.11,10-61.92,7.93-3.33-.49-4-.46-4.93,0s-.11,1.36,1,2.22c4.22,2.79,8.52,5.26,12.89,7.65a204.17,204.17,0,0,0,41.4,16.55c74.38,20.55,158.17,5.45,214-50,43.86-43.58,59.24-103.68,59.24-163.86,0-2.35,2.78-3.65,4.43-4.9,11.41-8.57,20.62-18.83,29.13-30.29a9.21,9.21,0,0,0,1.93-5.8v-.31C382,84.51,382,84.8,380.51,85.48Z" transform="translate(-17.59 -49.52)"/></svg>